<mxfile host="app.diagrams.net" modified="2023-07-12T09:01:56.020Z" agent="Mozilla/5.0 (Windows NT 10.0; Win64; x64) AppleWebKit/537.36 (KHTML, like Gecko) Chrome/114.0.0.0 Safari/537.36" etag="tLnhwsepYozRj6YhMN0r" version="21.2.9" type="github">
  <diagram name="Page-1" id="jD_iUNRhJwK4xUTZHQIW">
    <mxGraphModel dx="1434" dy="756" grid="1" gridSize="10" guides="1" tooltips="1" connect="1" arrows="1" fold="1" page="1" pageScale="1" pageWidth="850" pageHeight="1100" math="0" shadow="0">
      <root>
        <mxCell id="0" />
        <mxCell id="1" parent="0" />
        <mxCell id="WQ10y30SmpLB2R00jmrI-3" value="" style="rounded=1;whiteSpace=wrap;html=1;hachureGap=4;fontFamily=Architects Daughter;fontSource=https%3A%2F%2Ffonts.googleapis.com%2Fcss%3Ffamily%3DArchitects%2BDaughter;fontSize=20;glass=0;shadow=0;" vertex="1" parent="1">
          <mxGeometry x="330" y="190" width="120" height="60" as="geometry" />
        </mxCell>
      </root>
    </mxGraphModel>
  </diagram>
</mxfile>
